<?xml version="1.0" encoding="UTF-8" standalone="no"?><!DOCTYPE svg PUBLIC "-//W3C//DTD SVG 1.1//EN" "http://www.w3.org/Graphics/SVG/1.1/DTD/svg11.dtd"><svg width="100%" height="100%" viewBox="0 0 73 17" version="1.1" xmlns="http://www.w3.org/2000/svg" xmlns:xlink="http://www.w3.org/1999/xlink" xml:space="preserve" xmlns:serif="http://www.serif.com/" style="fill-rule:evenodd;clip-rule:evenodd;stroke-linejoin:round;stroke-miterlimit:1.41421;"><rect id="ArtBoard1" x="0" y="0" width="72.159" height="16.63" style="fill:none;"/><clipPath id="_clip1"><rect x="0" y="0" width="72.159" height="16.63"/></clipPath><g clip-path="url(#_clip1)"><path d="M0.335,4.51c0,1.884 0.682,3.25 2.847,5.157c1.697,1.484 2.215,2.379 2.215,3.58c0,1.177 -0.518,1.601 -1.343,1.601c-0.825,0 -1.344,-0.424 -1.344,-1.601l0,-1.178l-2.445,0l0,1.013c0,2.636 1.317,4.141 3.86,4.141c2.542,0 3.859,-1.505 3.859,-4.141c0,-1.884 -0.682,-3.25 -2.846,-5.157c-1.697,-1.484 -2.216,-2.379 -2.216,-3.58c0,-1.177 0.472,-1.625 1.297,-1.625c0.825,0 1.296,0.448 1.296,1.625l0,0.683l2.446,0l0,-0.518c0,-2.636 -1.294,-4.141 -3.813,-4.141c-2.519,0 -3.813,1.505 -3.813,4.141Z" style="fill-rule:nonzero;"/><path d="M9.353,0.557l0,12.549c0,2.636 1.317,4.141 3.859,4.141c2.543,0 3.86,-1.505 3.86,-4.141l0,-12.549l-2.445,0l0,12.714c0,1.177 -0.519,1.601 -1.344,1.601c-0.825,0 -1.343,-0.424 -1.343,-1.601l0,-12.714l-2.587,0Z" style="fill-rule:nonzero;"/><path d="M22.654,0.557l-3.813,0l0,16.478l2.587,0l0,-6.192l1.226,0c2.589,0 3.859,-1.435 3.859,-4.071l0,-2.144c0,-2.637 -1.27,-4.071 -3.859,-4.071Zm0,2.351c0.825,0 1.272,0.377 1.272,1.555l0,2.474c0,1.177 -0.447,1.554 -1.272,1.554l-1.226,0l0,-5.583l1.226,0Z" style="fill-rule:nonzero;"/><path d="M31.53,0.557l-3.813,0l0,16.478l2.587,0l0,-6.192l1.226,0c2.59,0 3.859,-1.435 3.859,-4.071l0,-2.144c0,-2.637 -1.269,-4.071 -3.859,-4.071Zm0,2.351c0.825,0 1.273,0.377 1.273,1.555l0,2.474c0,1.177 -0.448,1.554 -1.273,1.554l-1.226,0l0,-5.583l1.226,0Z" style="fill-rule:nonzero;"/><path d="M39.18,9.972l2.946,0l0,7.063l2.634,0l0,-16.478l-2.634,0l0,7.063l-2.946,0l0,-7.063l-2.587,0l0,16.478l2.587,0l0,-7.063Z" style="fill-rule:nonzero;"/><path d="M49.233,2.908l4.474,0l0,-2.351l-7.061,0l0,16.478l7.061,0l0,-2.352l-4.474,0l0,-4.829l3.555,0l0,-2.352l-3.555,0l0,-4.594Z" style="fill-rule:nonzero;"/><path d="M63.36,17.035c-0.259,-0.612 -0.283,-1.201 -0.283,-2.001l0,-2.543c0,-1.719 -0.423,-2.942 -1.717,-3.483l0,-0.047c1.153,-0.541 1.694,-1.624 1.694,-3.32l0,-1.296c0,-2.542 -1.153,-3.788 -3.837,-3.788l-3.906,0l0,16.478l2.587,0l0,-6.71l0.895,0c1.179,0 1.697,0.565 1.697,2.095l0,2.59c0,1.342 0.094,1.601 0.235,2.025l2.635,0Zm-4.213,-14.127c0.919,0 1.32,0.519 1.32,1.697l0,1.625c0,1.319 -0.59,1.743 -1.556,1.743l-1.013,0l0,-5.065l1.249,0Z" style="fill-rule:nonzero;"/><path d="M67.15,4.345c0,-1.177 0.519,-1.625 1.344,-1.625c0.825,0 1.343,0.448 1.343,1.625l0,8.902c0,1.177 -0.518,1.625 -1.343,1.625c-0.825,0 -1.344,-0.448 -1.344,-1.625l0,-8.902Zm-2.587,8.737c0,2.636 1.388,4.141 3.931,4.141c2.543,0 3.93,-1.505 3.93,-4.141l0,-8.572c0,-2.636 -1.387,-4.141 -3.93,-4.141c-2.543,0 -3.931,1.505 -3.931,4.141l0,8.572Z" style="fill-rule:nonzero;"/></g></svg>